<svg xmlns="http://www.w3.org/2000/svg" width="18.74" height="6.548" viewBox="0 0 18.74 6.548"><g transform="translate(-391.392 -283.813)"><path d="M409.194,283.813h-.968a.269.269,0,0,0-.269.268v6.011a.268.268,0,0,0,.269.268h.968a.268.268,0,0,0,.269-.268v-6.011a.269.269,0,0,0-.269-.268" transform="translate(-11.334)"/><path d="M421.155,283.813h-.967a.268.268,0,0,0-.269.268v3.571l-2.755-3.72c-.006-.009-.014-.018-.021-.027l0,0-.016-.016-.005,0-.014-.012-.007-.006-.014-.009-.008,0-.014-.008-.009,0-.015-.006-.009,0-.016-.005-.009,0-.015,0-.011,0-.014,0h-.991a.269.269,0,0,0-.269.268v6.011a.268.268,0,0,0,.269.268h.967a.269.269,0,0,0,.269-.268v-3.57l2.758,3.725a.266.266,0,0,0,.068.066l0,0,.017.01.008,0,.013.006.013.005.008,0,.018.006h0a.258.258,0,0,0,.069.009h.967a.268.268,0,0,0,.269-.268v-6.011a.269.269,0,0,0-.269-.268" transform="translate(-16.635)"/><path d="M395.527,288.855H392.9v-4.774a.268.268,0,0,0-.268-.268h-.968a.269.269,0,0,0-.269.268v6.011h0a.266.266,0,0,0,.075.185l0,0,0,0a.266.266,0,0,0,.186.075h3.866a.268.268,0,0,0,.268-.269v-.968a.269.269,0,0,0-.268-.269"/><path d="M440.932,285.318a.269.269,0,0,0,.268-.269v-.967a.269.269,0,0,0-.268-.269h-3.866a.267.267,0,0,0-.186.076l0,0,0,0a.269.269,0,0,0-.075.185h0v6.01h0a.267.267,0,0,0,.075.186l0,0,0,0a.267.267,0,0,0,.186.075h3.866a.269.269,0,0,0,.268-.269v-.968a.269.269,0,0,0-.268-.269H438.3V287.84h2.629a.269.269,0,0,0,.268-.269V286.6a.269.269,0,0,0-.268-.269H438.3v-1.016Z" transform="translate(-31.068)"/></g></svg>