<svg xmlns="http://www.w3.org/2000/svg" width="54.036" height="6.624" viewBox="0 0 54.036 6.624"><path d="M4.077-1.4v-.018c0-.855-.783-1.17-1.476-1.386-.558-.18-1.071-.324-1.071-.666v-.018c0-.279.243-.477.666-.477a2.758,2.758,0,0,1,1.341.45l.432-.774a3.294,3.294,0,0,0-1.746-.54A1.516,1.516,0,0,0,.531-3.384v.018c0,.909.783,1.2,1.485,1.4.558.171,1.062.3,1.062.666v.018c0,.315-.27.513-.738.513A2.667,2.667,0,0,1,.783-1.359L.3-.621A3.338,3.338,0,0,0,2.313.09C3.3.09,4.077-.405,4.077-1.4Zm3.2-4.077V-6.516H6.1v1.035ZM7.236,0V-4.752H6.147V0Zm3.411-2.682a1.057,1.057,0,0,1,1.071-1.179c.648,0,1.017.423,1.017,1.161V0h1.089V-3.024a1.632,1.632,0,0,0-1.692-1.827,1.71,1.71,0,0,0-1.485.837v-.738H9.558V0h1.089Zm9.531,1.9-.657-.648a1.672,1.672,0,0,1-1.233.594,1.448,1.448,0,0,1-1.422-1.539A1.429,1.429,0,0,1,18.234-3.9a1.6,1.6,0,0,1,1.233.594l.675-.729a2.374,2.374,0,0,0-1.9-.819,2.453,2.453,0,0,0-2.466,2.493A2.428,2.428,0,0,0,18.234.108,2.4,2.4,0,0,0,20.178-.783ZM22.77-1.989h3.492c.009-.108.018-.2.018-.3A2.3,2.3,0,0,0,24-4.851a2.361,2.361,0,0,0-2.322,2.484A2.373,2.373,0,0,0,24.12.108a2.4,2.4,0,0,0,1.944-.891l-.639-.567a1.726,1.726,0,0,1-1.287.567A1.332,1.332,0,0,1,22.77-1.989Zm-.009-.72A1.286,1.286,0,0,1,23.994-3.96,1.234,1.234,0,0,1,25.2-2.709Zm8.667-3.1.234.9L32.8-5.22V0h1.1V-6.345H33.12ZM41.049-3.33a3.161,3.161,0,0,0-.765-2.412,2.259,2.259,0,0,0-1.746-.666,2.193,2.193,0,0,0-2.349,2.187,2,2,0,0,0,2.232,2.007A1.856,1.856,0,0,0,39.9-2.88C39.861-1.719,39.3-.9,38.376-.9a2.1,2.1,0,0,1-1.44-.594l-.6.846a2.99,2.99,0,0,0,2.016.756C40.041.108,41.049-1.3,41.049-3.33Zm-1.188-.954a1.166,1.166,0,0,1-1.278,1.143A1.152,1.152,0,0,1,37.3-4.275a1.159,1.159,0,0,1,1.251-1.179A1.192,1.192,0,0,1,39.861-4.284ZM47.6-5.706a2.855,2.855,0,0,0-1.926-.7c-1.782,0-2.7,1.5-2.7,3.438A3.136,3.136,0,0,0,43.74-.549a2.376,2.376,0,0,0,1.755.657,2.183,2.183,0,0,0,2.34-2.151A2,2,0,0,0,45.63-4.032a2.006,2.006,0,0,0-1.5.63c.054-1.152.576-2,1.512-2a2.092,2.092,0,0,1,1.368.549ZM46.728-2a1.147,1.147,0,0,1-1.26,1.152,1.175,1.175,0,0,1-1.305-1.143,1.162,1.162,0,0,1,1.278-1.116A1.148,1.148,0,0,1,46.728-2Zm3.384-1.215.666.441a2.693,2.693,0,0,1,1.161-.279c.783,0,1.305.4,1.305,1.053A1.11,1.11,0,0,1,51.993-.9a2.4,2.4,0,0,1-1.62-.756l-.684.8A3.229,3.229,0,0,0,52,.108a2.114,2.114,0,0,0,2.331-2.142,1.941,1.941,0,0,0-2.187-1.989,2.679,2.679,0,0,0-1,.18l.1-1.476h2.808V-6.3H50.292Z" transform="translate(-0.297 6.516)"/></svg>