<svg xmlns="http://www.w3.org/2000/svg" width="26.041" height="25.4" viewBox="0 0 26.041 25.4"><g transform="translate(-1207.643 -37.358)"><path d="M2633.727-21.789h17.29l-3.451,11.853s-.26,1.169-1.169,1.169h-11.57c-.855,0-.947-.528-1.344-1.169s-3.8-11.569-4.344-12.824a7.518,7.518,0,0,0-3.288-3.153" transform="translate(-1418 63.726)" fill="none" stroke="#fff" stroke-width="1"/><g transform="translate(1214.74 58.759)" fill="none"><path d="M2,0A2,2,0,1,1,0,2,2,2,0,0,1,2,0Z" stroke="none"/><path d="M 2 1 C 1.448600053787231 1 1 1.448600053787231 1 2 C 1 2.551399946212769 1.448600053787231 3 2 3 C 2.551399946212769 3 3 2.551399946212769 3 2 C 3 1.448600053787231 2.551399946212769 1 2 1 M 2 0 C 3.104569911956787 0 4 0.8954300880432129 4 2 C 4 3.104569911956787 3.104569911956787 4 2 4 C 0.8954300880432129 4 0 3.104569911956787 0 2 C 0 0.8954300880432129 0.8954300880432129 0 2 0 Z" stroke="none" fill="#fff"/></g><g transform="translate(1226.74 58.759)" fill="none"><path d="M2,0A2,2,0,1,1,0,2,2,2,0,0,1,2,0Z" stroke="none"/><path d="M 2 1 C 1.448600053787231 1 1 1.448600053787231 1 2 C 1 2.551399946212769 1.448600053787231 3 2 3 C 2.551399946212769 3 3 2.551399946212769 3 2 C 3 1.448600053787231 2.551399946212769 1 2 1 M 2 0 C 3.104569911956787 0 4 0.8954300880432129 4 2 C 4 3.104569911956787 3.104569911956787 4 2 4 C 0.8954300880432129 4 0 3.104569911956787 0 2 C 0 0.8954300880432129 0.8954300880432129 0 2 0 Z" stroke="none" fill="#fff"/></g></g></svg>