<svg xmlns="http://www.w3.org/2000/svg" width="19.288" height="16" viewBox="0 0 19.288 16"><g transform="translate(-94.712 -576)"><g transform="translate(-1112.931 539.017)"><path d="M2630.654-23.4H2641.2l-2.1,7.228s-.159.713-.713.713h-7.056c-.521,0-.578-.322-.82-.713s-2.318-7.055-2.649-7.82a4.587,4.587,0,0,0-2.005-1.923" transform="translate(-1418 63.726)" fill="none" stroke="#fff" stroke-width="1"/><g transform="translate(1211.931 49.983)" fill="none" stroke="#fff" stroke-width="1"><circle cx="1.5" cy="1.5" r="1.5" stroke="none"/><circle cx="1.5" cy="1.5" r="1" fill="none"/></g><g transform="translate(1218.931 49.983)" fill="none" stroke="#fff" stroke-width="1"><circle cx="1.5" cy="1.5" r="1.5" stroke="none"/><circle cx="1.5" cy="1.5" r="1" fill="none"/></g></g><circle cx="3" cy="3" r="3" transform="translate(107 576)" fill="#8aa7a0"/><line x2="4.5" transform="translate(109.5 578.25)" fill="none" stroke="#fff" stroke-width="1"/><line y2="4.5" transform="translate(111.75 576)" fill="none" stroke="#fff" stroke-width="1"/></g></svg>