<svg xmlns="http://www.w3.org/2000/svg" width="187.79" height="9.431" viewBox="0 0 187.79 9.431"><g transform="translate(-697.735 -6197.725)"><path d="M-107,0h4.173a2.267,2.267,0,0,0,2.509-2.34A2.143,2.143,0,0,0-102-4.472a1.961,1.961,0,0,0,1.508-1.989,2.2,2.2,0,0,0-2.444-2.21H-107Zm1.3-4.992V-7.527h2.522a1.236,1.236,0,0,1,1.352,1.274,1.227,1.227,0,0,1-1.352,1.261Zm0,3.848v-2.7h2.587a1.323,1.323,0,0,1,1.456,1.339,1.3,1.3,0,0,1-1.456,1.365ZM-91.221,0h1.43l-3.445-8.671h-1.625L-98.306,0h1.43l.7-1.794h4.251Zm-2.834-7.54L-92.3-2.951h-3.5Zm10.218,7.7a3.937,3.937,0,0,0,3.445-1.833l-1.1-.585A2.748,2.748,0,0,1-83.837-1a3.139,3.139,0,0,1-3.107-3.328,3.131,3.131,0,0,1,3.107-3.328A2.748,2.748,0,0,1-81.5-6.4l1.1-.585a3.921,3.921,0,0,0-3.445-1.833,4.342,4.342,0,0,0-4.446,4.485A4.342,4.342,0,0,0-83.837.156ZM-72.579,0h1.612l-3.861-4.563,3.575-4.108h-1.612l-3.627,4.3v-4.3h-1.3V0h1.3V-2.847l.819-.923Zm10.8,0h1.3V-7.527H-57.8V-8.671h-6.669v1.144h2.691Zm5.928-4.329A4.264,4.264,0,0,0-51.48.156a4.264,4.264,0,0,0,4.368-4.485A4.264,4.264,0,0,0-51.48-8.814,4.264,4.264,0,0,0-55.848-4.329Zm7.4,0A3.056,3.056,0,0,1-51.48-1a3.041,3.041,0,0,1-3.029-3.328A3.034,3.034,0,0,1-51.48-7.657,3.049,3.049,0,0,1-48.451-4.329ZM-32.123,0h1.3V-8.671h-1.859L-35.2-2.444l-2.522-6.227h-1.859V0h1.3V-6.89L-35.477,0h.546l2.808-6.89ZM-27.6,0h5.824V-1.144H-26.3v-2.7h4.433V-4.992H-26.3V-7.527h4.524V-8.671H-27.6Zm14.846,0h1.261V-8.671h-1.3v6.5l-4.719-6.5H-18.85V0h1.3V-6.656Zm4.485-3.393A3.285,3.285,0,0,0-4.615.156,3.272,3.272,0,0,0-.975-3.406V-8.671H-2.288v5.239A2.176,2.176,0,0,1-4.615-1a2.185,2.185,0,0,1-2.34-2.431V-8.671H-8.268Z" transform="translate(886.5 6207)"/><path d="M2492.066,371.047h59.2l-5.673,4.961" transform="translate(3250.332 6574.11) rotate(180)" fill="none" stroke="#000" stroke-width="1"/></g></svg>