<svg xmlns="http://www.w3.org/2000/svg" width="254.204" height="89.327" viewBox="0 0 254.204 89.327"><path d="M-100.48-22.24c.72,0,1.2-.8,1.84-1.12,1.92-2,3.6-4.24,5.44-6.32-.08-.4.24-.4.32-.8,1.92-1.84,3.12-4.64,4.88-6.72.16-1.2,1.12-1.44,1.28-2.72a6.393,6.393,0,0,0,1.12-1.92c.24-.64.8-1.28.72-1.84.24-.08.32-.32.48-.4a26.345,26.345,0,0,0,1.36-5.76A6.4,6.4,0,0,0-84.64-54c-1.52-1.52-5.28-1.04-7.44-.08a11.4,11.4,0,0,1-2.24,1.04A38.5,38.5,0,0,0-98.72-50c-.32.08-.48.4-.8.48-.16.24-.48.32-.64.64-1.28.64-2.08,1.84-3.2,2.56-.72,1.04-1.92,1.52-2.48,2.64-1.28.88-2.24,2.24-3.52,3.28-.24.72-.88.96-1.12,1.68a5.52,5.52,0,0,0-1.28,1.44c-1.36,1.28-2.32,3.04-3.68,4.4-.4,1.04-1.2,1.68-1.6,2.72-.24-.16-.16.32-.4.24-.4.96-1.12,1.44-1.44,2.48-1.28,1.6-2.08,3.68-3.28,5.36.08.32-.08.4-.16.64-.08.16-.24.32-.4.56-2.48,5.36-5.76,12.64-5.36,19.36a9.119,9.119,0,0,0,2.88,7.04c2.64,2.24,7.84.96,10.88-.16a49.744,49.744,0,0,0,9.04-4.16,1.883,1.883,0,0,1,.64-.16c2.48-1.52,4.96-3.12,7.68-4.56A22.41,22.41,0,0,1-94.24-5.2c.32-.4.96-.56,1.28-.88.48-.32,1.04-.4,1.36-.88-.8-.32-1.84.88-2.56,1.12A29.572,29.572,0,0,0-96.8-4.16a.6.6,0,0,1-.4.08c-3.28,1.92-6.32,4.08-9.92,5.52a.944.944,0,0,1-.4.4c-1.92.64-3.28,1.68-5.36,2.16-.16.08-.24.24-.4.4-2,.56-3.92,1.12-5.92,1.52a12.447,12.447,0,0,1-4.72-.48,28.555,28.555,0,0,1-2.24-2.16c.16-.48-.24-.48-.4-.8-.24-.8-.48-1.76-.72-2.56-.56-9.76,4.24-18.4,7.92-25.28.24-.16.32-.56.56-.8.96-1.84,2.16-3.28,3.12-5.04,1.28-1.6,2.4-3.28,3.76-4.88,1.28-1.6,2.64-3.12,3.84-4.8,1.12-.64,1.92-2.4,3.36-2.96a.826.826,0,0,1,.32-.64c1.44-1.2,2.8-2.56,4.24-3.84,1.36-1.12,2.96-2,4.32-3.12.8-.32,1.52-.88,2.32-1.28,2.08-.88,5.44-2.4,7.84-1.2,2,1.2,2.4,4.32,1.36,7.28-1.76,5.52-5.12,10.16-7.92,14.56a33.344,33.344,0,0,0-3.28,4.24c-1.2,1.28-2.4,2.56-3.44,3.92C-99.6-23.52-100.32-23.12-100.48-22.24Zm17.76-4.24c-.32-1.52-1.84-3.28-3.76-2.16-1.52,2.48.56,4.24,1.52,5.68-.64,1.84-1.76,2.96-2.08,4.72a3.919,3.919,0,0,0-.8,3.2c.48.8,1.68.16,2.16-.48,1.04-1.36,1.68-4,2.4-5.36.08-.4,0-.64.32-.8,5.52,1.12,10.4-.56,14.56-2.88.08-.24-.08-.32-.16-.48-.8.48-1.6.8-2.48,1.28-1.04.08-2.08,1.04-3.04.88-.24.32-.4.16-.64.4a3.915,3.915,0,0,0-2.08.32,20.948,20.948,0,0,1-5.44-.16c-.08-.24-.48-.16-.64-.32.32-1.6-.08-3.04,1.04-3.76C-82.08-26.64-82.4-26.8-82.72-26.48Zm-.56.88c-.32.64-.8,1.12-1.12,1.84-.32,0-.4-.16-.64-.24-.56-1.2-1.84-2.08-1.2-4,.72-.8,1.44-.4,2.16,0A5.328,5.328,0,0,1-83.28-25.6Zm-.64,2.16a3.6,3.6,0,0,1,.48-.96c.24.32.08,1.04,0,1.44C-83.68-23.12-83.92-23.2-83.92-23.44Zm-1.76,2.88a16.54,16.54,0,0,0,1.2-2c.32.16.64.24.8.48a15.664,15.664,0,0,1-3.36,6.72c-.4-.16-.08-.96-.08-1.52C-86.72-18.24-86.16-19.28-85.68-20.56Zm22.72,4.08c-.64-.72,0-2.16,0-2.96.24,0,0-.4.24-.4.88-3.52,3.2-6.96,2.72-10.48-.32-.16-.4-.48-.88-.56a1.507,1.507,0,0,1-.64.16c-3.76,3.12-7.04,7.36-10.32,11.36.16-.72.96-1.44,1.28-2.32.88-.96,1.44-2.48,2.48-3.44.08.16-.16.64.16.64.32-.64.24-1.36-.32-1.52-1.2,1.04-1.76,2.88-2.8,3.92-.08.24.08.16.08.4-.24,0-.16-.08-.32,0-1.76,3.36-4.16,6.08-5.84,9.76.24.08.56.48.8.4a84.132,84.132,0,0,1,13.6-17.52c.64-.24.88-.8,1.44-1.04.16,0,.24-.16.32-.08.96.72,0,2.8-.16,3.52-.16.32-.48.8-.32,1.2-.4.32-.4,1.2-.8,1.6-.24,1.28-1.2,2.72-1.28,4.16-.88,1.44-1.12,4.48.96,4.16.56-.32,1.12-.8,1.68-1.2,1.6-1.92,3.44-3.52,5.12-5.52.56-.16.72-.88,1.28-1.04-.48,2-1.84,3.52-1.84,5.6a1.544,1.544,0,0,1,.24.8.712.712,0,0,1,.48.48,3.916,3.916,0,0,0,2.16.48,26.615,26.615,0,0,0,6.72-3.44,45.224,45.224,0,0,0,5.84-4.48c.48-.08.96-.48.96-.88-.8-.08-1.2.88-1.92.96-.08.24-.24.32-.4.48-.48,0-.48.48-.88.56a66.883,66.883,0,0,1-8.32,5.28c-1.2.24-2.24,1.04-3.44.56a3.132,3.132,0,0,1-.64-.8c-.08-2.4,1.84-4.4,2.16-6.64-.16-.16-.08-.56-.4-.56a8.358,8.358,0,0,0-1.68,1.68c-2.16,1.68-3.76,3.84-5.76,5.76C-61.84-17.2-62.16-16.48-62.96-16.48ZM-34.8-35.6c-.16-.48-1.36-1.6-1.68-.48C-36.24-35.76-35.2-34.88-34.8-35.6Zm15.76,7.04c-.08-.24-.24-.32-.24-.48h-.24c-1.36,1.12-2.88,2.08-4.16,3.36-.24-.08-.24.08-.32,0-.24.16-.24.4-.4.48a11.679,11.679,0,0,0-2.72,2.08h-.24c-1.28,1.2-2.96,1.84-4.16,3.04a5.15,5.15,0,0,0-2,1.2c-2,1.04-3.84,2.24-5.84,3.2-.88.32-2.88.72-3.6-.32a3.7,3.7,0,0,1-.32-2.72,21.431,21.431,0,0,1,4.8-6.56c-.16-.16-.08-.4-.24-.4a.919.919,0,0,0-.88.48c0-.16-.16-.08-.24-.08-.4.48-.88.56-1.2,1.04.24.24.48-.24.64-.08a20.7,20.7,0,0,0-3.68,5.84c-.56,2.8,1.12,4.48,4.08,3.76a59.569,59.569,0,0,0,10.88-6.56c.4,0,.4-.32.72-.32,1.28-1.2,2.88-1.92,4-3.2,1.36-.64,2.4-1.84,3.68-2.64-1.2,2.08-2.64,3.92-3.92,6-.64,1.36-1.84,2.8-1.68,4.64.32.24.4.48.88.48a18.934,18.934,0,0,0,4.72-3.6c.88-.32,1.2-1.12,1.84-1.6,1.6-1.04,2.64-2.64,4.56-3.28.24,2.32-1.12,6,.96,6.96.4-.4-.08-.72-.16-1.12a7,7,0,0,1-.24-1.92,29.674,29.674,0,0,1,.4-3.52c-.16-.48-.24-.96-.72-1.2-.08.16-.4.08-.56.08a6.11,6.11,0,0,0-.72.72c-.16-.08-.16-.16-.32-.08C-18.56-22.4-21.44-20-24.4-17.6c-.48,0-.64.4-1.04.4.16-2.8,2-4.4,3.04-6.48C-21.2-25.2-20.16-26.88-19.04-28.56Zm-22.16,4.4ZM-.48-9.36A90.822,90.822,0,0,0,5.6-24.4a6.942,6.942,0,0,0,.08-2.24c-.16-.24-.32-.64-.72-.8C2.72-27.76.8-25.52-1.12-24.48-.88-26-1.28-27.04-2.4-27.2s-2.88,1.2-3.92,2c-1.2.8-2.08,1.84-3.12,2.64l-.72.72c-.08.16-.32.24-.24.48-.16.16-.24,0-.32.16-.72,1.12-2.08,2.24-2.08,3.76.4.64,1.28.64,2.08.32a85.856,85.856,0,0,0,8-5.12c-1.04,2.08-2.64,3.52-3.6,5.84,1.92-2,3.28-4.56,4.88-7.04.56-.4,1.44-.72,1.84-1.44a5.8,5.8,0,0,0,2-1.2,7.964,7.964,0,0,1,2.08-.72.819.819,0,0,0,.48.4c-.08.24.08.32.16.48a14.635,14.635,0,0,1-1.28,4.96A67.068,67.068,0,0,1-2-7.92a1.435,1.435,0,0,1-.56.4A65.249,65.249,0,0,0-8.24-1.68,3.728,3.728,0,0,0-9.36-.56c-.08.08-.24.08-.32.16-.88,1.36-2.08,2.24-2.88,3.68-.16.08-.4.16-.48.32-.72,1.04-1.6,1.68-2.24,2.8a29.255,29.255,0,0,0-3.36,4.56c-.16.16-.24-.08-.32.08a60.115,60.115,0,0,0-6.96,11.68c-.4,1.52-1.2,3.04.16,3.6a3.227,3.227,0,0,0,.88,0,5.967,5.967,0,0,1,.96-.56,50.341,50.341,0,0,0,5.76-5.92c.64-1.28,1.6-2.08,2.24-3.36,2.24-2.72,4-6,6.08-8.96A11.232,11.232,0,0,1-8.16,4.8C-5.84.4-3.2-3.68-1.04-8.24c.16-.16.48-.16.72-.32.08-.16.24-.24.32-.48A15.617,15.617,0,0,1,1.84-10.4c2.08-2,4.56-3.68,6.8-5.52,2.4-1.84,4.8-3.6,7.04-5.44.4-.16.64-.64,1.12-.8a14.147,14.147,0,0,1,1.76-1.28c.56-.48,1.28-.8,1.52-1.6a1.239,1.239,0,0,0-.88.64c-3.52,2.48-6.96,4.96-10.32,7.76a11.4,11.4,0,0,0-2.8,2.32C3.84-13.04,1.68-10.72-.48-9.36ZM-11.6-17.6c-.08-.16-.24-.16-.48-.16.56-2.4,2.64-3.52,3.92-5.28,1.36-1.12,2.88-2.08,4.32-3.12.56.08,1.2-.32,1.76,0a2.628,2.628,0,0,1,0,2.56C-5.2-21.52-7.92-19.04-11.6-17.6ZM-6.4-3.36c1.68-.96,2.8-2.48,4.08-3.68a.111.111,0,0,1,.16,0,18.047,18.047,0,0,0-.88,1.76C-4.08-3.92-4.64-1.92-5.76-.72c-3.04,6-6.64,11.12-10,16.48-1.84,2.08-3.44,4.4-5.2,6.48-.16-.08-.16.16-.32.08-1.12,1.36-2.16,2.72-4.08,3.04-.88-1.12.48-2.96.8-4.4a21.123,21.123,0,0,0,1.44-3.04,1.8,1.8,0,0,0,.8-1.28,6.365,6.365,0,0,0,1.44-2.24,2.6,2.6,0,0,0,1.04-1.36c2.16-2.88,4.32-5.52,6.48-8.4A4.676,4.676,0,0,0-12,2.96c.24-.08.4-.32.64-.4a2.28,2.28,0,0,1,.88-1.04c0-.32.32-.4.24-.56.48-.16.48-.72.88-.8C-8.48-1.12-7.04-1.84-6.4-3.36ZM96.4-50.88c.8,0,1.2-1.28,1.6-2,.56-.8.88-1.84,1.36-2.64a8.547,8.547,0,0,0,.32-5.04,1.579,1.579,0,0,1-.48-.96c-.64-.4-1.12-.88-1.76-1.2a16.668,16.668,0,0,0-5.28-.08C81.76-60.96,72-57.12,62.48-53.12c-1.6.96-3.44,1.52-4.96,2.48a55.939,55.939,0,0,0-12.16,7.36c-1.52,1.52-3.68,2.96-4.16,5.68a6.272,6.272,0,0,0,1.04,4.4,18.2,18.2,0,0,0,4.72,4.16c4,2.08,7.76,4.16,11.92,6,1.6,1.12,3.68,1.84,5.36,2.96,1.84.64,3.52,1.92,5.44,2.72.4.56,1.12.88,1.6,1.44a6.688,6.688,0,0,0-1.84.96,76.068,76.068,0,0,0-10.4,5.6c-4.4,2.88-8.96,5.6-12.08,9.92a.279.279,0,0,1-.16.08c0,.4-.08.72-.08,1.04.16.48.4.8.56,1.2C50.32,4.24,54,2.32,56.8,1.44c.72-.56,2.4-.88,3.36-1.68A38.742,38.742,0,0,0,67.84-4.8c2.64-1.92,7.12-5.52,5.76-9.6-.24-.48-.72-.88-1.04-1.52a21.519,21.519,0,0,0,3.84-1.92c.08.08.16.08.32.08.16-.32.56-.32.88-.48a3.1,3.1,0,0,0,.88-.48,14.889,14.889,0,0,1,2-.8,1.608,1.608,0,0,1,.64-.32c.24-.08.4-.32.64-.4a2.783,2.783,0,0,0,1.2-.56c2-.56,3.6-1.68,5.76-2.24.72-.48,1.76-.72,2.48-1.28-.08,0,0-.16,0-.24-1.52.16-2.88,1.12-4.48,1.52C81.76-20.8,76.96-18.48,72-16.32a9.488,9.488,0,0,0-2.72-2.24,18.672,18.672,0,0,0-3.36-1.6c-.08-.32-.56-.24-.56-.56-.16.08-.24.16-.4,0a25.6,25.6,0,0,0-4.16-2.16c0-.16-.24-.16-.24-.32-1.84-.8-3.2-1.68-5.12-2.32.16-.24,0-.16,0-.32-4.88-2.32-10.16-4.24-12.88-8.4a5.225,5.225,0,0,1,.4-5.92,47.073,47.073,0,0,1,10.72-7.92,32.043,32.043,0,0,0,4.64-2.4c.24.08.16,0,.4,0a21.086,21.086,0,0,1,4.08-1.84A21.8,21.8,0,0,1,66.56-54c1.36-.88,2.96-1.12,4.48-2.08.56.16,1.12-.24,1.6-.48,4-1.44,7.92-2.72,12.08-4,4.72-.88,9.84-2.88,13.84-.56.16.72.56,1.2.72,1.92a8.029,8.029,0,0,1-.16,2.8c-.4,1.04-.96,1.92-1.36,2.88A10.4,10.4,0,0,0,96.4-50.88ZM71.6-15.44c.08,0,.16-.16.16,0a4.054,4.054,0,0,1,.96,4.96,13.048,13.048,0,0,1-2.8,3.12c-.88,1.12-2.24,1.68-3.12,2.72-1.36.64-2.56,1.6-3.92,2.32-1.36.8-2.8,1.44-4.16,2.16-2.56.8-6.08,2.96-9.52,2.64-.72-.08-1.76-.48-1.76-1.12C47.28.08,49.12-.88,49.6-1.76,50.64-2.4,51.44-3.44,52.48-4,58.16-8.72,64.64-12.24,71.6-15.44Zm22.64-8.8c.56-.88,2.72-3.84.4-4-1.2.64-1.92,1.76-2.88,2.48-.24-.96-.56-1.84-1.52-2.16-1.04,1.12-.32,2.8.08,3.76a9.075,9.075,0,0,1-1.92,2c0,.16-.08.24-.08.48-1.2,1.04-1.92,2.72-3.12,3.84-.72,1.36-1.76,2.16-2.32,3.68-.8.56-1.04,1.76-1.44,2.64a2.383,2.383,0,0,0-.08,1.04,4.4,4.4,0,0,1,.72.56c.32-.08.4.08.64.08a4.266,4.266,0,0,0,2.24-1.12c2.24-1.76,4.08-4.48,5.68-6.8-.08-.72.4-1.28.64-2.08.32-1.04.16-2.08.56-2.96a17.109,17.109,0,0,1,2.16.48c5.44.32,10.72-1.6,15.68-2.4-.64,1.12-1.76,1.52-2.24,2.72-1.68,1.52-2.8,3.52-4.24,5.36-.08.56-.56.72-.56,1.28a.985.985,0,0,1,.08.96c.16.16.56.16.8.32a8.33,8.33,0,0,1,.96-.4c2.72-3.04,5.84-5.92,7.04-10.24a.739.739,0,0,0,0-1.44c-.4,0-.4.4-.72.48-2.64.72-5.04.96-7.6,1.92a7.013,7.013,0,0,0-2.56.48,1.672,1.672,0,0,0-1.36.32c-.24,0-.24-.16-.4-.24-.24.16-.64.16-.8.4-1.76-.08-4.16,0-5.92-.72a1.833,1.833,0,0,1-.48-1.2c.4-.56,1.04-.8,1.36-1.52.72,0,.96-1.2,2-1.12.24.88-1.04,2-.96,3.2C94.16-24.08,94.24-24.16,94.24-24.24Zm-3.36-.72a1.749,1.749,0,0,1-.32-1.6A2.333,2.333,0,0,1,90.88-24.96Zm16.24,4.16a23.326,23.326,0,0,1,3.36-3.52.279.279,0,0,1,.08.16c-1.12,3.36-3.28,5.52-5.28,7.92-.32.08-.56.4-.88.56a2.663,2.663,0,0,1-.24.48c-.4,0-.4.4-.88.32C103.84-17.44,105.84-18.88,107.12-20.8ZM90.64-23.68a.279.279,0,0,1,.16.08c.32.48,0,1.68-.16,2.64a21.081,21.081,0,0,1-.56,2.4,20.272,20.272,0,0,1-4.72,6.08.357.357,0,0,0,0,.4c-.96.48-1.6,1.36-2.8,1.52a1.1,1.1,0,0,1-.64-.8,23.275,23.275,0,0,1,2.72-4.72,10.679,10.679,0,0,0,.48-.96,7.681,7.681,0,0,0,1.12-1.2c.08-.08,0-.24,0-.32.48-.56,1.04-1.12,1.6-1.76a5.8,5.8,0,0,0,.4-.72c.24-.24.48-.32.64-.56a.4.4,0,0,1,.08-.24c.16-.24.4-.32.64-.56C90.08-22.8,90.24-23.36,90.64-23.68Zm3.6-.56C94.24-24.32,94.32-24.32,94.24-24.24Zm31.84,6.48c.08-.48-.32-.48-.56-.72-.64-.88-.48-2.24-.56-3.6.24-1.76,1.04-3.92-.16-4.64-.32,0-.32-.08-.56,0h-.08a.416.416,0,0,1-.32.16c-.16.24-.32.48-.64.48a30.584,30.584,0,0,0-3.6,4.72c-.32,0-.32.48-.64.48a21.99,21.99,0,0,1-1.84,2.64c-.48.72-.72,1.44-1.36,1.68-.08-.4.24-.48.32-.8,0-.56.4-.56.32-1.12,1.28-1.6,1.84-3.84,2.88-5.6.4.16.16.72.32.96.64-.64.16-1.6.24-2.4-.32.08-.32-.08-.64-.24-1.52,3.52-3.44,6.8-4.88,10.48.16.08.16.16.16.32.4.08.32.32.64.4a6.448,6.448,0,0,0,1.84-2.24c2.32-2.88,4.16-6.4,6.96-8.96.24,0,.24-.24.56-.16.4.48.24,1.44.08,2.16-.24,2-.56,4.16.24,5.52C125.12-18,125.44-17.52,126.08-17.76Z" transform="translate(128.113 62.971)"/></svg>