<svg xmlns="http://www.w3.org/2000/svg" width="110.501" height="13.733" viewBox="0 0 110.501 13.733"><g transform="translate(0 0)"><path d="M553.776,264.964H552.7v.243a1.569,1.569,0,0,1,1.485,1.069l3.85,12.421h3.223L557,264.964Z" transform="translate(-545.429 -264.964)"/><path d="M541.653,278.7,537.4,264.964h-4.3v.243a1.563,1.563,0,0,1,1.483,1.063l3.851,12.426Z" transform="translate(-533.095 -264.964)"/><path d="M580.03,264.964h-3.223l-1.037,3.349,1.611,5.2,2.241-7.234a1.569,1.569,0,0,1,1.485-1.069v-.243Z" transform="translate(-559.946 -264.964)"/><path d="M668.183,271.513a3.184,3.184,0,0,0,1.79-2.96v-.039a3.16,3.16,0,0,0-.932-2.335,4.9,4.9,0,0,0-3.566-1.217h-1.947v2.649h1.5c1.266,0,1.967.508,1.967,1.411v.038c0,1.021-.837,1.452-2.161,1.452h-1.306v2.513h2.005c1.539,0,2.221.567,2.221,1.49v.039c0,1.02-.8,1.491-2.122,1.491h-2.1v2.648h2.1c3.077,0,5.1-1.255,5.1-3.766v-.037C670.736,273.046,669.761,272.125,668.183,271.513Z" transform="translate(-615.164 -264.964)"/><path d="M647.737,264.964h-1.562v.243a1.565,1.565,0,0,1,1.562,1.567V278.7h3.1V264.964h-3.1Z" transform="translate(-604.246 -264.964)"/><path d="M767.414,269.5v-.039a4.3,4.3,0,0,0-1.169-3.119,5.454,5.454,0,0,0-3.974-1.38h-1.981v2.708h1.728c1.46,0,2.356.661,2.356,1.947v.039c0,1.149-.837,1.928-2.3,1.928h-2.467l4.769,7.108h3.505l-3.392-4.963A4.24,4.24,0,0,0,767.414,269.5Z" transform="translate(-675.619 -264.964)"/><path d="M745.653,264.964h-1.566v.243a1.567,1.567,0,0,1,1.566,1.567V278.7h3.1V264.964h-3.1Z" transform="translate(-665.853 -264.964)"/><path d="M605.452,264.964h-4.8v.248c.8.031,1.264.607.964,1.72L597.972,278.7h4.8v-.247c-.8-.032-1.267-.607-.966-1.719l2.964-9.558,3.572,11.524h3.224l-4.257-13.733Z" transform="translate(-573.916 -264.964)"/><path d="M703.371,264.964h-4.8v.248c.8.031,1.267.607.966,1.72L695.888,278.7h4.8v-.247c-.8-.032-1.266-.607-.964-1.719l2.961-9.558,3.572,11.524h3.224l-4.259-13.733Z" transform="translate(-635.526 -264.964)"/><path d="M801.245,267.173l3.574,11.524h3.224l-4.258-13.733h-6.653v.248c.8.031,1.265.607.967,1.72L794.451,278.7h4.8v-.247c-.8-.032-1.266-.607-.964-1.719Z" transform="translate(-697.542 -264.964)"/></g></svg>