<svg xmlns="http://www.w3.org/2000/svg" width="110.501" height="29.858" viewBox="0 0 110.501 29.858"><g transform="translate(-533.095 -264.964)"><g transform="translate(533.095 264.964)"><g transform="translate(0 0)"><path d="M553.776,264.964H552.7v.243a1.569,1.569,0,0,1,1.485,1.069l3.85,12.421h3.223L557,264.964Z" transform="translate(-545.429 -264.964)" fill="#fff"/><path d="M541.653,278.7,537.4,264.964h-4.3v.243a1.563,1.563,0,0,1,1.483,1.063l3.851,12.426Z" transform="translate(-533.095 -264.964)" fill="#fff"/><path d="M580.03,264.964h-3.223l-1.037,3.349,1.611,5.2,2.241-7.234a1.569,1.569,0,0,1,1.485-1.069v-.243Z" transform="translate(-559.946 -264.964)" fill="#fff"/><path d="M668.183,271.513a3.184,3.184,0,0,0,1.79-2.96v-.039a3.16,3.16,0,0,0-.932-2.335,4.9,4.9,0,0,0-3.566-1.217h-1.947v2.649h1.5c1.266,0,1.967.508,1.967,1.411v.038c0,1.021-.837,1.452-2.161,1.452h-1.306v2.513h2.005c1.539,0,2.221.567,2.221,1.49v.039c0,1.02-.8,1.491-2.122,1.491h-2.1v2.648h2.1c3.077,0,5.1-1.255,5.1-3.766v-.037C670.736,273.046,669.761,272.125,668.183,271.513Z" transform="translate(-615.164 -264.964)" fill="#fff"/><path d="M647.737,264.964h-1.562v.243a1.565,1.565,0,0,1,1.562,1.567V278.7h3.1V264.964h-3.1Z" transform="translate(-604.246 -264.964)" fill="#fff"/><path d="M767.414,269.5v-.039a4.3,4.3,0,0,0-1.169-3.119,5.454,5.454,0,0,0-3.974-1.38h-1.981v2.708h1.728c1.46,0,2.356.661,2.356,1.947v.039c0,1.149-.837,1.928-2.3,1.928h-2.467l4.769,7.108h3.505l-3.392-4.963A4.24,4.24,0,0,0,767.414,269.5Z" transform="translate(-675.619 -264.964)" fill="#fff"/><path d="M745.653,264.964h-1.566v.243a1.567,1.567,0,0,1,1.566,1.567V278.7h3.1V264.964h-3.1Z" transform="translate(-665.853 -264.964)" fill="#fff"/><path d="M605.452,264.964h-4.8v.248c.8.031,1.264.607.964,1.72L597.972,278.7h4.8v-.247c-.8-.032-1.267-.607-.966-1.719l2.964-9.558,3.572,11.524h3.224l-4.257-13.733Z" transform="translate(-573.916 -264.964)" fill="#fff"/><path d="M703.371,264.964h-4.8v.248c.8.031,1.267.607.966,1.72L695.888,278.7h4.8v-.247c-.8-.032-1.266-.607-.964-1.719l2.961-9.558,3.572,11.524h3.224l-4.259-13.733Z" transform="translate(-635.526 -264.964)" fill="#fff"/><path d="M801.245,267.173l3.574,11.524h3.224l-4.258-13.733h-6.653v.248c.8.031,1.265.607.967,1.72L794.451,278.7h4.8v-.247c-.8-.032-1.266-.607-.964-1.719Z" transform="translate(-697.542 -264.964)" fill="#fff"/></g></g><path d="M2.431.1A2.035,2.035,0,0,0,4.5-2.057,2.033,2.033,0,0,0,2.431-4.207,2.038,2.038,0,0,0,.357-2.057,2.04,2.04,0,0,0,2.431.1Zm0-.68A1.337,1.337,0,0,1,1.156-2.057a1.334,1.334,0,0,1,1.275-1.47,1.329,1.329,0,0,1,1.275,1.47A1.332,1.332,0,0,1,2.431-.578ZM10.115,0h.765V-2.881A1.18,1.18,0,0,0,9.563-4.207a1.958,1.958,0,0,0-1.453.68v-.578H7.344V0h.765V-2.932a1.467,1.467,0,0,1,1.13-.6c.527,0,.875.221.875.9Zm3.851,0h.765V-5.669h-.765ZM18.19-4.752a.493.493,0,0,0,.493-.493.486.486,0,0,0-.493-.485.492.492,0,0,0-.493.485A.5.5,0,0,0,18.19-4.752ZM17.816,0h.765V-4.106h-.765Zm6.622,0H25.2V-2.881a1.18,1.18,0,0,0-1.318-1.326,1.958,1.958,0,0,0-1.453.68v-.578h-.765V0h.765V-2.932a1.467,1.467,0,0,1,1.13-.6c.527,0,.875.221.875.9Zm3.6-2.057A2.053,2.053,0,0,0,30.158.1,2.309,2.309,0,0,0,31.807-.51l-.357-.5a1.745,1.745,0,0,1-1.215.484A1.346,1.346,0,0,1,28.84-1.8h3.247v-.187a2.019,2.019,0,0,0-2-2.219A2.065,2.065,0,0,0,28.033-2.057ZM30.09-3.579a1.215,1.215,0,0,1,1.25,1.224H28.832A1.257,1.257,0,0,1,30.09-3.579ZM38.624-.535A2.336,2.336,0,0,0,40.333.1C41.412.1,41.99-.45,41.99-1.156c0-.943-.85-1.139-1.564-1.3-.51-.119-.952-.238-.952-.6,0-.331.323-.535.841-.535a1.6,1.6,0,0,1,1.215.5l.34-.536a2.2,2.2,0,0,0-1.564-.586c-1,0-1.564.561-1.564,1.215,0,.884.816,1.071,1.513,1.233.527.119.994.255.994.663,0,.348-.306.586-.884.586A1.989,1.989,0,0,1,38.989-1.1ZM45.959.1a1.089,1.089,0,0,0,.8-.263l-.2-.578a.588.588,0,0,1-.417.161c-.264,0-.4-.213-.4-.5V-3.434h.833v-.672h-.833V-5.227h-.765v1.122H44.3v.672h.68V-.91A.893.893,0,0,0,45.959.1Zm5.16,0a2.035,2.035,0,0,0,2.074-2.159,2.033,2.033,0,0,0-2.074-2.151,2.038,2.038,0,0,0-2.074,2.151A2.04,2.04,0,0,0,51.119.1Zm0-.68a1.337,1.337,0,0,1-1.275-1.479,1.334,1.334,0,0,1,1.275-1.47,1.329,1.329,0,0,1,1.275,1.47A1.332,1.332,0,0,1,51.119-.578ZM56.032,0H56.8V-2.856a1.45,1.45,0,0,1,1.08-.6,1.2,1.2,0,0,1,.264.026V-4.2a1.744,1.744,0,0,0-1.343.722v-.629h-.765ZM60.52-2.057A2.053,2.053,0,0,0,62.645.1,2.309,2.309,0,0,0,64.294-.51l-.357-.5a1.745,1.745,0,0,1-1.215.484A1.346,1.346,0,0,1,61.327-1.8h3.247v-.187a2.019,2.019,0,0,0-2-2.219A2.065,2.065,0,0,0,60.52-2.057Zm2.057-1.522a1.215,1.215,0,0,1,1.25,1.224H61.319A1.257,1.257,0,0,1,62.577-3.579Z" transform="translate(556.096 294.72)" fill="#fff"/></g></svg>