<svg xmlns="http://www.w3.org/2000/svg" width="136.295" height="7.59" viewBox="0 0 136.295 7.59"><g transform="translate(-697.735 -6250.542)"><path d="M.814,0H4.345A1.918,1.918,0,0,0,6.468-1.98a1.814,1.814,0,0,0-1.419-1.8A1.659,1.659,0,0,0,6.325-5.467a1.86,1.86,0,0,0-2.068-1.87H.814Zm1.1-4.224V-6.369H4.048A1.046,1.046,0,0,1,5.192-5.291,1.038,1.038,0,0,1,4.048-4.224Zm0,3.256V-3.256H4.1A1.12,1.12,0,0,1,5.335-2.123,1.1,1.1,0,0,1,4.1-.968ZM14.168,0h1.21L12.463-7.337H11.088L8.173,0h1.21l.594-1.518h3.6Zm-2.4-6.38L13.255-2.5H10.3ZM20.416.132a3.332,3.332,0,0,0,2.915-1.551l-.935-.5a2.326,2.326,0,0,1-1.98,1.067,2.656,2.656,0,0,1-2.629-2.816,2.65,2.65,0,0,1,2.629-2.816A2.326,2.326,0,0,1,22.4-5.412l.935-.495a3.318,3.318,0,0,0-2.915-1.551,3.674,3.674,0,0,0-3.762,3.795A3.674,3.674,0,0,0,20.416.132ZM29.942,0h1.364L28.039-3.861l3.025-3.476H29.7L26.631-3.7V-7.337h-1.1V0h1.1V-2.409l.693-.781Zm9.141,0h1.1V-6.369h2.266v-.968H36.806v.968h2.277ZM44.1-3.663a3.608,3.608,0,0,0,3.7,3.8,3.608,3.608,0,0,0,3.7-3.8,3.608,3.608,0,0,0-3.7-3.795A3.608,3.608,0,0,0,44.1-3.663Zm6.259,0A2.586,2.586,0,0,1,47.795-.847a2.573,2.573,0,0,1-2.563-2.816,2.567,2.567,0,0,1,2.563-2.816A2.58,2.58,0,0,1,50.358-3.663ZM64.174,0h1.1V-7.337H63.7L61.567-2.068,59.433-7.337H57.86V0h1.1V-5.83L61.336,0H61.8l2.376-5.83ZM68,0H72.93V-.968H69.1V-3.256h3.751v-.968H69.1V-6.369H72.93v-.968H68ZM80.564,0h1.067V-7.337h-1.1v5.5l-3.993-5.5H75.405V0h1.1V-5.632Zm3.795-2.871a2.779,2.779,0,0,0,3.091,3,2.769,2.769,0,0,0,3.08-3.014V-7.337H89.419V-2.9A1.841,1.841,0,0,1,87.45-.847,1.849,1.849,0,0,1,85.47-2.9V-7.337H84.359Z" transform="translate(743.5 6258)" fill="#fff"/><path d="M2492.066,371.047h32.544l-3.119,2.727" transform="translate(3223.677 6625.11) rotate(180)" fill="none" stroke="#fff" stroke-width="1"/></g></svg>