<svg xmlns="http://www.w3.org/2000/svg" width="11.176" height="19.25" viewBox="0 0 11.176 19.25"><path d="M-.77-18.018v15.07C-3.74-2.706-4.95-.99-4.95.088A1.179,1.179,0,0,0-3.674,1.232c1.54,0,3.652-2.442,3.652-3.718v-10.6c.484.286,2.926,1.584,3.454,1.914A2.923,2.923,0,0,1,5.126-8.69,5.744,5.744,0,0,1,3.806-5.5,13.314,13.314,0,0,1,1.694-3.3l.044.066a7.163,7.163,0,0,0,4.488-6.05c0-2.178-1.5-3.476-2.926-4.642C.682-16.06.572-16.148-.594-18.018Z" transform="translate(4.95 18.018)" fill="#fff"/></svg>