<svg xmlns="http://www.w3.org/2000/svg" width="49.6" height="69.134" viewBox="0 0 49.6 69.134"><g transform="translate(22560.816 176.458)"><path d="M-24.816-1.034A3.754,3.754,0,0,0-21.923.132c1.98,0,2.772-1.067,2.772-2.211,0-1.562-1.4-1.936-2.6-2.255-.913-.231-1.7-.44-1.7-1.1,0-.616.561-1.034,1.375-1.034a2.862,2.862,0,0,1,2.123.858l.638-.814a3.6,3.6,0,0,0-2.673-1.023c-1.529,0-2.6.88-2.6,2.09,0,1.5,1.364,1.837,2.541,2.145.935.242,1.771.462,1.771,1.232,0,.528-.418,1.133-1.606,1.133a3.094,3.094,0,0,1-2.31-1.034ZM-12.441.132A3.332,3.332,0,0,0-9.526-1.419l-.935-.5a2.326,2.326,0,0,1-1.98,1.067A2.656,2.656,0,0,1-15.07-3.663a2.65,2.65,0,0,1,2.629-2.816,2.326,2.326,0,0,1,1.98,1.067l.935-.495a3.318,3.318,0,0,0-2.915-1.551A3.674,3.674,0,0,0-16.2-3.663,3.674,3.674,0,0,0-12.441.132ZM-2.222,0H-.946L-2.827-2.937A2.047,2.047,0,0,0-1-5.082,2.187,2.187,0,0,0-3.355-7.337H-6.446V0h1.1V-2.827h1.375Zm.088-5.082A1.269,1.269,0,0,1-3.5-3.8H-5.346V-6.369H-3.5A1.269,1.269,0,0,1-2.134-5.082ZM2.024-3.663a3.608,3.608,0,0,0,3.7,3.8,3.608,3.608,0,0,0,3.7-3.8,3.608,3.608,0,0,0-3.7-3.795A3.608,3.608,0,0,0,2.024-3.663Zm6.259,0A2.586,2.586,0,0,1,5.72-.847,2.573,2.573,0,0,1,3.157-3.663,2.567,2.567,0,0,1,5.72-6.479,2.58,2.58,0,0,1,8.283-3.663ZM12.727,0H17.16V-.968H13.827V-7.337h-1.1ZM20.35,0h4.433V-.968H21.45V-7.337h-1.1Z" transform="translate(-22536 -169)" fill="#fff"/><line y1="47" transform="translate(-22536.5 -155.5)" fill="none" stroke="#fff" stroke-width="1"/><path d="M10222.924,662.193l3.753,5.131,3.753-5.131" transform="translate(-32763.148 -775.147)" fill="none" stroke="#fff" stroke-linecap="round" stroke-linejoin="round" stroke-width="1"/></g></svg>